<svg width="500" height="200" viewBox="0 0 500 200" fill="none" xmlns="http://www.w3.org/2000/svg">
<path d="M159.51 97.8479V125.318H79.9297V97.8479C82.9397 97.1279 84.3297 99.4379 86.6197 100.478C96.7497 105.078 110.21 97.3379 119.91 100.298C124.11 101.578 124.76 102.408 129.77 102.088C134.78 101.768 137.13 99.8479 141.46 98.2779C147.21 96.1879 153.58 97.3379 159.51 97.8479Z" fill="#0495D9"/>
<path d="M273.77 90.1117C275.77 90.3817 278.39 91.8117 279.52 93.5217C282.8 98.4117 278.8 102.752 275.16 105.962V106.342L284.5 117.412C286.92 119.392 291.64 121.612 292.22 117.032C293.21 109.042 291.68 98.7817 292.58 90.6317C292.63 90.2217 292.67 89.5517 293.14 89.4217C294.73 88.9517 313.68 110.192 316.89 112.302C316.76 108.152 317.07 103.932 316.91 99.7817C316.84 97.9617 316.75 94.4217 316.46 92.8417C316.37 92.3517 316.21 91.6717 315.83 91.3617C314.82 90.5117 312.53 91.4318 312.67 90.1218H323.58C323.71 91.3518 322.14 90.5717 321.13 91.3617C320.32 91.9717 320.12 95.6717 320.05 96.9717C319.82 101.242 319.82 105.732 319.69 109.992C319.6 113.562 319.78 117.172 319.69 120.742L317.94 120.562C310.22 113.452 302.65 106.172 295.4 98.5617C295.81 103.972 295.33 109.962 295.74 115.302C296.01 118.832 296.01 118.912 299.13 119.682C299.73 119.822 300.16 119.342 299.98 120.402H282.54C281.42 120.402 278.97 118.612 278.12 117.772C276.23 115.862 272.22 108.972 270.87 108.122C269.64 107.342 267.57 107.892 266.15 107.722V116.702C266.15 117.012 266.71 118.742 267 119.012C267.72 119.702 268.97 119.552 269.83 119.702C270.43 119.812 270.43 119.482 270.35 120.392H257.33L260.18 118.842C260.5 118.372 260.74 116.622 260.81 115.952C261.39 110.292 261.31 99.5418 260.86 93.8018C260.72 92.0718 260.64 91.3317 258.82 90.9017C257.94 90.7017 256.33 91.3017 256.62 90.1117C261.94 90.6317 268.54 89.4217 273.7 90.1117H273.77ZM266.25 105.212C277.7 109.632 278.95 90.7817 267.42 92.2117C267.04 92.2617 266.61 92.2118 266.36 92.5518C265.67 93.5218 266.52 103.242 266.25 105.192V105.212Z" fill="#313130"/>
<path d="M190.673 45.0329C201.023 46.2029 201.363 56.4629 194.023 61.9329C208.393 67.0029 205.063 84.1729 189.623 84.1529C188.473 84.1529 187.473 83.7729 186.463 83.7529C182.533 83.7329 178.583 83.8029 174.653 83.7529C174.613 82.2229 176.273 82.8829 177.213 82.6129C178.493 82.2529 178.763 80.1229 178.873 78.9929C179.723 69.4329 178.243 58.7229 178.893 49.0529C178.893 46.1329 176.313 45.7329 173.953 46.4229V45.0129C179.253 45.4429 185.473 44.4329 190.673 45.0129V45.0329ZM185.793 47.1929C185.183 47.3929 185.253 47.8629 185.193 48.3629C184.743 52.2429 185.513 57.0229 185.263 61.0029C185.583 61.9729 188.883 61.6129 189.803 61.4129C195.163 60.2929 194.403 51.0429 190.813 48.3929C189.693 47.5629 187.113 46.7529 185.783 47.1829L185.793 47.1929ZM185.213 63.6929V79.3629C185.213 80.5029 187.393 81.3329 188.373 81.4929C196.093 82.8629 198.293 76.8029 195.963 70.3829C194.213 65.5729 190.263 63.4729 185.233 63.6929H185.213Z" fill="#313130"/>
<path d="M243.311 55.9582C244.391 47.6782 233.431 45.9882 227.391 47.2682C214.081 50.0682 213.941 70.1182 223.061 77.7782C228.451 82.3182 239.341 83.9782 243.371 76.9682C243.951 75.9582 243.821 74.2582 245.071 74.2582C245.501 74.7582 244.281 81.9782 243.681 82.8282C242.451 84.5982 232.371 84.6482 230.081 84.5082C224.221 84.1282 217.441 81.5682 213.781 76.8582C208.601 70.2082 208.031 60.8782 212.521 53.5182C217.841 44.8082 228.141 43.6882 237.501 44.6982C238.421 44.7882 244.441 45.7082 244.751 45.9082C245.531 46.4282 244.751 48.1982 244.711 49.0782C244.661 50.9682 245.611 56.2382 243.321 55.9482L243.311 55.9582Z" fill="#313130"/>
<path d="M347.532 120.392C347.352 119.312 347.822 119.832 348.402 119.692C349.102 119.492 349.972 119.532 350.552 119.002C351.052 118.552 351.362 114.622 351.422 113.542C351.742 107.322 351.382 101.062 351.742 94.8622C351.792 93.9622 351.542 89.5922 351.742 89.4122C351.812 89.3622 352.792 89.3622 353.062 89.5222L376.032 112.312L375.602 93.2122C375.402 92.0622 374.842 91.1922 373.672 90.9222C372.802 90.7022 371.162 91.3322 371.452 90.1422H382.722C382.882 91.2022 382.452 90.7022 381.852 90.8622C380.252 91.2722 379.512 91.0422 379.222 93.1722C378.122 101.012 379.802 111.622 378.862 119.572C378.702 120.992 378.322 120.892 377.072 120.622C375.932 120.392 372.492 116.272 371.282 115.142C365.652 109.822 360.122 104.372 354.542 98.9522C354.612 102.052 354.432 105.192 354.522 108.292C354.592 110.622 354.632 114.892 354.972 117.002C355.382 119.562 356.232 119.222 358.252 119.722C358.852 119.862 359.282 119.382 359.102 120.442H347.492L347.532 120.392Z" fill="#313130"/>
<path d="M262.679 47.8603C259.689 48.7403 252.939 47.2803 250.719 49.1003C249.929 49.3703 249.489 52.4003 248.769 52.0803C248.049 51.7603 248.359 51.2103 248.389 50.6703C248.529 48.6303 249.329 46.3603 249.649 44.3203C250.459 44.3703 251.149 44.9003 251.959 45.0103C253.659 45.2103 256.139 45.3303 257.909 45.4103C265.949 45.7703 274.569 45.5003 282.539 44.7203C283.779 45.0103 282.699 51.3003 282.559 52.4203C281.389 52.4003 281.859 50.4703 281.139 49.6103C279.279 47.3403 272.139 48.6403 269.359 47.8403V80.0703C269.359 83.0303 272.069 82.4703 273.889 82.9603C274.519 83.1203 274.789 82.8503 274.649 83.7703H258.459C258.299 82.7103 258.709 83.2103 259.309 83.0503C260.009 82.8703 261.289 82.8703 261.799 82.3603C261.939 82.2203 262.669 80.2103 262.669 80.0703V47.8403L262.689 47.8603H262.679Z" fill="#313130"/>
<path d="M420.419 105.244C420.549 106.594 419.009 106.124 418.309 106.474C416.199 107.524 418.079 118.014 416.899 119.154C416.299 119.754 412.699 120.474 411.689 120.634C400.649 122.344 387.239 118.304 387.289 105.054C387.289 102.164 389.489 96.1638 391.379 93.9638C392.049 93.1838 397.439 90.5939 398.589 90.2639C404.629 88.5839 411.069 89.6838 417.089 90.7538L416.889 98.5238H415.839C415.749 92.1538 407.219 91.2939 402.309 91.8739C389.559 93.3839 390.839 116.614 405.539 118.494C406.439 118.604 411.599 118.904 411.599 117.714V107.144C411.599 106.004 407.219 106.654 407.719 105.214H420.399V105.254L420.419 105.244Z" fill="#313130"/>
<path d="M159.506 87.9991V96.0991C158.516 96.0591 157.506 96.1491 156.516 96.0991C147.986 95.5391 140.536 91.9491 131.846 92.5691C125.356 93.0191 122.936 98.5191 115.936 95.4691C113.136 94.2391 113.106 92.8691 109.316 92.5691C99.1062 91.7791 89.7362 94.4591 79.9062 96.4491V88.3491H86.7762C87.5362 88.3491 90.4162 90.0291 91.4462 90.3691C96.6062 92.0491 100.246 91.0691 105.426 90.7991C108.256 90.6591 109.986 91.3591 112.856 90.4791C118.126 88.8791 121.026 87.7591 126.936 88.3291C129.226 88.5491 130.006 89.8791 131.766 90.5291C135.136 91.7891 145.416 92.2091 148.936 91.3391C152.456 90.4691 155.696 87.8591 159.486 87.9891L159.506 88.0091V87.9991Z" fill="#0495D9"/>
<path d="M159.51 80.95V86.94C158.19 86.9 156.86 87.03 155.56 86.85C152.15 86.36 150.26 84.29 145.62 84.11C138.97 83.86 135.27 85.25 129.25 86.44C122.67 87.74 119.1 86.98 113.02 85.02C109.72 83.96 97.2397 84.21 93.6297 84.98C92.4897 85.23 89.8997 86.58 88.9097 86.58H79.9297V80.95C83.2997 81.17 86.9797 80.66 90.3197 80.95C92.7497 81.17 94.7697 82.46 97.0297 82.7C100.31 83.02 107.11 83.02 110.43 82.72C112.85 82.5 115.15 81.17 117.82 80.95C120.74 80.7 126.13 80.57 129.02 80.72C131.29 80.83 133.2 82.25 135.46 82.67C139.95 83.5 148.12 83.34 152.57 82.26C155.04 81.66 156.92 79.99 159.55 80.96H159.51V80.95Z" fill="#0495D9"/>
<path d="M221.837 120.39C221.657 119.34 222.107 119.83 222.667 119.65C224.347 119.09 225.097 119.15 226.147 117.47C230.077 109.26 233.017 100.5 236.857 92.2598C238.787 88.1098 239.187 88.7298 240.937 92.3298C244.847 100.41 247.697 109.07 251.717 117.11C252.957 118.97 253.467 119.13 255.507 119.67C256.087 119.83 256.537 119.29 256.377 120.37H245.467C245.087 119.45 246.097 119.81 246.187 119.43C246.567 117.7 243.377 112.41 243.047 110.36C242.737 109.93 233.187 110 232.627 110.5C232.157 110.91 229.557 117.66 229.637 118.42C229.677 118.85 229.947 119.3 230.337 119.48C231.237 119.91 232.717 119.12 232.447 120.36H221.877L221.837 120.38V120.39ZM233.807 108.07H241.907C240.717 105.18 239.837 102.12 238.537 99.2898C238.337 98.8398 238.157 97.6498 237.507 97.8698C237.057 98.0098 234.207 105.8 233.977 106.67C233.847 107.14 233.727 107.59 233.797 108.08H233.817L233.807 108.07Z" fill="#313130"/>
<path d="M219.188 90.1114C219.438 90.0914 219.908 89.5513 220.418 89.7713C220.578 90.4013 220.128 97.4214 219.008 96.1014C219.298 94.7514 218.668 92.5814 217.078 92.5814H209.508V103.151H216.378C217.068 103.151 219.608 101.961 219.718 102.101L219.358 108.791C218.148 108.991 218.618 107.091 218.118 106.341C217.988 106.141 216.478 105.281 216.368 105.281H209.498V116.031C209.498 116.161 210.168 117.091 210.368 117.271C211.848 118.551 218.468 118.511 219.868 116.891C220.358 116.331 220.408 115.521 220.678 114.851C220.898 114.311 220.478 113.891 221.468 114.071C221.698 114.991 221.198 120.401 220.238 120.401H200.348L203.128 118.781C203.468 118.221 203.738 116.351 203.818 115.611C204.338 110.271 204.378 99.4914 203.868 94.1714C203.728 92.6914 203.488 91.3214 201.848 90.9114C200.978 90.6914 199.338 91.3213 199.628 90.1313C205.888 89.6613 213.028 90.7613 219.178 90.1313L219.198 90.1114H219.188Z" fill="#313130"/>
<path d="M159.512 74.2563V79.5363C157.112 79.9663 155.022 78.3963 152.892 77.8763C149.372 77.0263 137.442 76.9963 133.632 77.4263C131.542 77.6563 129.572 79.2463 127.612 79.5163C125.322 79.8363 119.422 79.8063 117.062 79.5663C115.492 79.4063 114.772 78.6663 113.382 78.3263C108.912 77.1863 100.592 76.9763 95.9219 77.4263C93.8619 77.6263 91.7219 79.5563 89.9519 79.5563H79.9219V74.2763C83.9419 74.5663 88.4719 73.8763 92.4219 74.2763C94.6619 74.4963 96.0319 75.8463 98.0519 76.0463C101.212 76.3563 107.932 76.3363 111.092 76.0263C117.672 75.3563 120.582 73.3163 128.262 74.7063C135.042 75.9363 141.732 76.6863 148.782 76.0363C152.122 75.7263 155.672 73.2963 159.512 74.2663V74.2463V74.2563Z" fill="#0495D9"/>
<path d="M187.323 90.1094C187.483 91.4294 185.533 90.4494 184.363 91.2094C183.823 91.5494 183.553 92.1694 183.463 92.7794L183.593 115.849C184.023 118.589 190.233 118.209 192.393 117.909C194.773 117.569 194.753 116.519 195.603 114.769C195.853 114.269 195.533 113.889 196.473 114.069C196.583 115.059 196.163 120.399 195.243 120.399H173.943C173.673 119.229 175.183 119.839 176.073 119.529C177.483 119.059 177.643 116.919 177.773 115.599C178.293 110.149 178.333 99.2394 177.823 93.7994C177.593 91.2894 176.903 91.3994 174.793 90.8194C174.213 90.6594 173.763 91.1994 173.923 90.1194H187.323V90.1094Z" fill="#313130"/>
<path d="M151.577 72.8506C150.497 72.6906 148.908 71.5206 147.958 71.1906C145.268 70.3106 141.378 69.8906 138.548 70.0206C131.528 70.3306 121.957 74.3106 115.387 72.8506C115.117 72.8006 115.137 72.2406 114.697 72.0606C112.537 71.1406 98.8475 71.1206 95.9475 71.4506C94.3075 71.6306 93.3675 72.6806 91.7275 72.8606C88.0675 73.2706 83.6875 72.5506 79.9375 72.8606V68.6206C83.5575 68.8406 87.4575 68.3506 91.0475 68.6206C93.3375 68.7806 94.8575 69.8306 96.6575 70.0406C102.068 70.7106 109.607 69.9006 115.017 69.3706C121.397 68.7606 124.718 70.7606 130.488 70.4006C133.738 70.2006 136.947 68.9206 139.977 68.6306C146.177 68.0306 153.227 69.0606 159.527 68.6306V72.8506C157.097 72.5806 153.937 73.2106 151.607 72.8506H151.587H151.577Z" fill="#0495D9"/>
<path d="M341.898 90.1094C342.078 91.2094 341.578 90.6494 341.028 90.8094C340.058 91.0994 338.988 91.0794 338.738 92.3994V117.389C338.788 119.809 340.738 119.369 342.438 119.679C343.018 119.789 343.038 119.459 342.958 120.369H329.578L332.568 118.619C332.698 117.159 333.018 115.699 333.108 114.239C333.418 109.099 333.738 98.2994 333.058 93.4794C332.968 92.7894 332.738 91.9794 332.228 91.4994L329.578 90.1094H341.898Z" fill="#313130"/>
<path d="M159.506 63.6911V67.2111C152.546 66.8311 145.076 67.7111 138.186 67.2111C130.866 66.6911 127.076 64.1611 119.356 66.3311C115.716 67.3411 115.406 65.7711 112.486 65.4511C109.136 65.0911 101.416 65.1111 98.0262 65.4511C95.9362 65.6511 94.1662 67.0411 92.0762 67.2511C88.2362 67.6311 83.8163 66.9411 79.9062 67.2511V63.7311C83.9963 64.0511 88.7462 63.2811 92.7662 63.7311C94.2262 63.8911 95.3762 64.6511 96.9662 64.8111C103.696 65.4411 110.186 64.4011 116.696 63.7511C124.446 62.9711 132.316 66.5111 139.486 65.7711C141.556 65.5511 145.796 63.7511 146.966 63.7511H159.466L159.506 63.7011V63.6911Z" fill="#0495D9"/>
<path d="M79.9306 62.2875V59.1175C83.9906 59.4775 88.8406 58.6275 92.7906 59.1175C94.1206 59.2775 95.0406 60.0575 96.6306 60.1975C106.581 61.0975 116.411 58.3575 125.881 59.1175C127.701 59.2575 128.871 60.0175 130.441 60.1975C134.251 60.6075 142.041 60.5075 145.951 60.1975C147.881 60.0575 149.161 59.2775 150.841 59.1175C153.561 58.8475 156.721 59.3475 159.501 59.1175V62.2875C156.581 62.0875 153.391 62.5375 150.501 62.2875C148.821 62.1475 147.451 61.3875 145.941 61.2275C141.761 60.7775 133.371 60.7375 129.041 60.8675C127.471 60.9075 126.231 62.1275 124.461 62.3075C122.691 62.4875 118.001 62.5275 116.361 62.2675C115.061 62.0675 113.871 61.0575 112.101 60.8775C109.721 60.6475 95.9606 60.5575 94.4306 61.1475C93.9806 61.3075 92.9906 62.2875 92.7506 62.2875H79.8906H79.9306Z" fill="#0495D9"/>
<path d="M159.51 54.5488V57.7188C156.9 57.4888 153.78 58.0288 151.23 57.7188C149.9 57.5588 148.98 56.7788 147.39 56.6388C143.75 56.3188 135.43 56.2388 131.88 56.6388C130.47 56.7988 129.77 57.5788 128.38 57.7188C122.54 58.3288 117.6 57.1188 112.17 56.6188C107.95 56.2188 100.21 56.2988 95.9403 56.6188C94.0303 56.7588 92.9503 57.5588 91.4003 57.7188C87.7003 58.0988 83.3403 57.3788 79.5703 57.6988V54.5288C83.1403 54.9788 88.7003 53.7688 91.9603 54.9288C92.2503 55.0388 92.2703 55.4888 92.7203 55.6488C94.5603 56.2988 110.88 56.2488 113.55 55.9388C115.3 55.7388 115.98 54.6788 117.75 54.5188C123.67 53.9588 127.34 55.5088 132.54 55.9588C135.01 56.1788 148.28 56.2788 149.89 55.6688C150.34 55.5088 151.33 54.5288 151.57 54.5288H159.49L159.53 54.5488H159.51Z" fill="#0495D9"/>
<path d="M159.512 51.0116V53.1216C156.662 52.9916 153.722 53.2816 150.872 53.1216C144.562 52.7416 137.942 51.8616 131.482 52.4016C118.012 53.5516 104.362 52.5116 90.6719 53.1416C87.1019 53.3016 83.4919 53.0016 79.9219 53.1416V51.0316C83.1119 51.1716 86.4119 50.8316 89.6019 51.0316C97.1419 51.4816 105.202 52.4016 112.852 51.7516C117.342 51.3716 121.982 50.5116 126.592 51.0116C135.262 51.9516 142.842 51.5716 151.572 51.0516C154.182 50.8916 156.872 51.1616 159.492 51.0516L159.512 51.0116Z" fill="#0495D9"/>
<path d="M159.512 47.8616L159.312 49.6316C155.542 49.4016 151.452 49.9216 147.712 49.6316C141.042 49.0916 134.942 48.0116 128.002 48.5816C123.672 48.9416 120.032 50.1816 115.302 49.6416C105.362 48.4916 97.0519 48.9916 87.1519 49.6416C86.3719 49.6916 79.9719 49.7816 79.9219 49.4216L80.1419 47.8516H159.522H159.502L159.512 47.8616Z" fill="#0495D9"/>
<path d="M159.51 44.6797C159.58 45.9797 159.6 46.2997 158.3 46.4697C153.81 47.0097 144.31 46.7797 139.6 46.4697C133.81 46.0897 129.12 45.3497 123.05 45.3897C112.46 45.4297 99.9797 44.5797 89.5997 45.3897C86.4297 45.6397 83.2897 47.0097 79.9297 46.4497V44.6797H159.51Z" fill="#0495D9"/>
<path d="M191.562 135.883H198.073C198.303 135.883 199.623 136.963 199.863 137.273C202.203 140.303 199.232 142.483 199.342 143.063C199.432 143.533 201.323 144.703 201.383 146.613C201.443 148.523 199.833 151.373 197.743 151.373H192.113C192.113 151.373 191.592 150.883 191.592 150.853V135.883H191.573H191.562ZM193.312 142.233C195.312 142.053 198.653 143.133 198.943 140.263C199.263 137.073 195.422 137.663 193.312 137.653V142.233ZM198.863 148.833C199.643 148.053 199.532 145.333 198.452 144.663C197.732 144.233 193.983 143.603 193.473 144.323C192.963 145.043 193.522 148.203 193.312 149.283C194.572 149.103 198.023 149.693 198.863 148.853V148.833Z" fill="#313130"/>
<path d="M372.537 151.367V143.087C372.537 142.947 371.707 141.787 371.477 141.667C370.357 141.067 368.667 142.807 368.667 143.797V151.367C368.017 151.367 367.187 151.527 366.957 150.787C366.377 149.037 367.497 143.487 366.737 142.207C365.747 140.547 363.387 142.477 363.387 143.437V151.357C362.917 151.467 361.617 151.287 361.617 150.837V140.087C363.127 139.487 363.437 140.807 363.547 140.787C363.817 140.737 364.607 140.007 365.137 139.887C367.607 139.287 368.277 141.477 368.487 141.487C368.757 141.487 370.957 138.237 373.267 140.607C374.527 141.907 374.637 148.707 374.317 150.487C374.117 151.537 373.507 151.407 372.547 151.367H372.537Z" fill="#313130"/>
<path d="M223.188 140.15C223.678 140.47 224.668 147.13 225.168 148.21C225.578 148.21 226.668 140.46 227.148 140.15C227.348 140.02 228.748 140.04 228.848 140.11C229.138 140.38 230.058 147.83 230.448 147.85C231.318 146.93 232.108 140.38 232.398 140.11C232.558 139.97 233.728 140.16 234.148 140.11C233.568 141.46 231.768 151.02 231.278 151.33C231.078 151.46 229.678 151.44 229.578 151.37C229.288 151.1 228.258 144.64 228.158 143.65C227.468 143.78 227.578 144.39 227.438 144.86C227.128 145.91 226.478 150.7 226.248 151.06C225.978 151.46 224.548 151.55 224.318 151.37C223.888 150.99 222.048 141.51 221.828 140.14C222.228 140.19 222.908 140 223.178 140.19V140.15H223.188Z" fill="#313130"/>
<path d="M181.296 135.93L186.276 151.37C183.246 152.13 184.076 148.38 183.156 147.01C182.936 146.69 178.306 146.65 177.816 146.97C176.626 147.76 177.766 152.36 174.656 151.39L179.276 135.94H181.296V135.93ZM182.396 145.04L180.286 138.01C180.286 139.16 177.956 144.48 178.516 145.04H182.396Z" fill="#313130"/>
<path d="M350.002 140.459C349.552 140.329 348.452 140.949 348.252 140.819C347.912 140.569 347.852 138.169 345.872 137.739C339.022 136.209 339.342 150.169 345.152 149.569C348.142 149.259 348.002 146.039 348.772 145.759C349.172 145.629 349.582 145.739 349.832 146.079C350.442 150.639 344.512 153.149 341.232 150.099C338.712 147.769 338.492 141.909 339.882 138.959C342.222 133.959 349.462 134.829 350.002 140.439V140.459Z" fill="#313130"/>
<path d="M270.424 140.443C270.014 140.333 268.804 140.933 268.674 140.803C268.544 140.673 268.294 138.173 266.944 137.793C259.084 135.553 259.764 151.873 266.724 149.243C268.884 148.433 268.704 145.983 269.034 145.743C269.234 145.603 270.764 145.973 270.784 146.303C270.944 148.093 268.714 150.753 266.904 151.213C260.194 152.943 258.514 144.793 260.104 139.833C261.904 134.133 269.734 134.173 270.424 140.463V140.443Z" fill="#313130"/>
<path d="M243.313 151.37C241.693 151.41 241.333 151.77 241.543 149.96C240.623 149.92 240.303 150.95 239.453 151.2C236.983 151.98 234.713 150.75 234.833 148.03C235.013 143.86 241.003 144.86 241.233 143.76C241.703 141.45 238.603 140.93 237.413 141.96C236.783 142.5 237.543 143.82 235.213 143.28C235.353 140.12 239.213 138.88 241.683 140.5C244.153 142.12 242.243 148.65 243.303 151.37H243.313ZM241.203 145.74C239.853 146.06 235.183 146.95 236.943 149.11C238.533 151.06 242.193 148.14 241.203 145.74Z" fill="#313130"/>
<path d="M394.023 151.37C392.793 151.53 392.183 151.28 392.253 149.96C391.403 149.87 391.103 150.81 390.413 151.1C387.903 152.16 385.433 150.87 385.543 148.03C385.703 143.86 391.713 144.86 391.943 143.76C392.393 141.49 389.233 141 388.123 141.96C387.493 142.5 388.253 143.82 385.923 143.28C385.993 140.23 389.803 138.97 392.233 140.32C394.903 141.8 392.953 148.72 394.023 151.37ZM391.913 145.74C390.413 146.48 387.383 146.01 387.353 148.07C387.283 151.32 393.253 149.15 391.913 145.74Z" fill="#313130"/>
<path d="M298.95 146.093H292.26C292.22 147.913 293.16 149.803 295.22 149.613C297.06 149.433 297.02 147.573 297.4 147.483C300.23 146.813 298.3 151.003 295.94 151.363C287.75 152.623 289.34 136.733 296.75 140.403C298.81 141.413 299.13 144.063 298.97 146.103H298.95V146.093ZM297.18 144.343C297.11 140.633 292.62 140.823 292.26 144.343H297.18Z" fill="#313130"/>
<path d="M210.912 151.369C209.522 151.569 209.322 151.299 209.142 149.959C206.292 152.409 202.112 151.819 202.832 147.349C203.332 144.229 207.182 145.099 209.182 143.779C209.182 141.779 206.782 140.789 205.282 142.069C204.702 142.559 204.632 143.579 204.562 143.639C203.952 144.089 202.722 143.149 203.422 141.619C204.392 139.549 209.032 139.279 210.162 141.039C211.212 142.659 210.112 149.049 210.902 151.389V151.369H210.912ZM209.162 145.739C207.612 146.099 202.942 146.659 204.902 149.109C206.522 151.149 209.932 147.989 209.162 145.739Z" fill="#313130"/>
<path d="M316.914 146.088C317.004 148.038 318.594 150.508 320.794 149.428C321.934 148.868 321.284 146.758 323.604 147.498C323.924 151.758 317.724 152.868 316.034 149.268C314.214 145.368 315.984 137.928 321.464 140.338C323.464 141.218 323.884 144.108 323.954 146.088H316.904H316.924H316.914ZM322.194 144.338C321.744 140.608 317.394 140.678 317.274 144.338H322.194Z" fill="#313130"/>
<path d="M282.754 135.883V140.803C283.744 140.693 284.174 139.843 285.334 139.863C291.194 139.953 290.074 153.263 284.144 151.203C283.184 150.883 283.444 150.153 282.754 149.963C283.474 151.753 281.344 151.513 281.344 151.373V135.883C281.344 135.883 282.494 135.933 282.754 135.883ZM284.774 141.563C282.254 142.053 281.974 148.093 283.964 149.283C288.504 151.993 288.884 140.773 284.774 141.563Z" fill="#313130"/>
<path d="M376.421 140.103C376.781 139.763 378.371 140.053 377.831 141.163C384.211 136.353 386.431 148.083 382.031 150.833C380.171 151.983 379.611 151.053 377.831 150.673C377.701 151.373 377.991 155.093 377.831 155.253C377.741 155.343 376.771 155.203 376.421 155.253C376.831 153.393 375.881 140.643 376.421 140.103ZM381.941 142.323C379.381 139.153 376.081 145.493 378.511 148.743C381.321 152.473 384.331 145.303 381.941 142.323Z" fill="#313130"/>
<path d="M327.481 135.883V143.983C329.391 142.683 330.001 139.423 332.761 140.103C333.261 140.533 329.571 143.543 329.641 144.453C329.711 145.363 333.731 150.783 333.101 151.373C330.341 152.493 329.781 146.393 328.341 146.093C326.341 145.683 328.991 152.423 325.711 151.373V135.883H327.481Z" fill="#313130"/>
<path d="M214.793 135.879V140.799C216.203 139.139 220.423 140.019 220.423 142.029V151.349C220.423 151.349 219.013 151.419 219.013 151.349V143.429C219.013 141.659 216.593 140.799 215.313 142.559C214.033 144.319 215.603 150.859 214.213 151.309C213.853 151.439 213.403 151.329 213.023 151.349V135.859H214.793V135.879Z" fill="#313130"/>
<path d="M355.201 139.83C361.851 139.25 361.551 152.92 354.501 151.3C350.321 150.34 349.991 140.28 355.201 139.83ZM353.971 149.17C354.471 149.64 355.791 149.75 356.441 149.55C358.781 148.86 358.951 142.28 356.061 141.58C352.671 140.75 352.201 147.51 353.951 149.17H353.971Z" fill="#313130"/>
<path d="M251.053 151.37V143.09C251.053 141.02 246.833 141.2 246.833 143.79V151.36C246.363 151.47 245.062 151.29 245.062 150.84V140.09C246.303 140.09 246.923 139.71 246.993 141.14C249.533 138.36 252.403 139.88 252.803 143.43C252.913 144.48 252.962 150.86 252.482 151.2C252.082 151.47 251.512 151.33 251.062 151.36L251.053 151.37Z" fill="#313130"/>
<path d="M406.663 140.141C406.983 140.411 408.303 147.251 408.993 148.201C409.603 146.251 410.313 144.321 410.903 142.381C411.403 140.741 410.743 139.461 413.053 140.291C411.973 143.031 409.913 153.511 408.113 155.061C406.003 156.861 405.043 154.071 405.663 153.491C405.913 153.261 408.373 154.301 408.113 150.891L404.953 140.291C404.973 139.981 406.543 140.041 406.683 140.151H406.663V140.141Z" fill="#313130"/>
<path d="M273.56 140.143C273.88 140.413 275.51 147.163 275.71 148.203C276.27 148.153 276.23 147.663 276.4 147.303C277.05 145.683 277.68 141.463 278.49 140.323C278.76 139.943 279.9 139.983 279.93 140.283L275.87 153.823C275.65 155.033 273.47 156.383 272.68 155.243C272.48 154.953 272.45 153.543 272.52 153.453C272.65 153.323 273.89 153.763 274.47 153.113C276.24 151.073 272.14 142.923 271.82 140.253C271.82 139.943 273.41 139.983 273.55 140.113L273.57 140.133L273.56 140.143Z" fill="#313130"/>
<path d="M403.181 151.368C403.181 151.368 401.771 151.438 401.771 151.368V143.798C401.771 141.558 399.081 140.588 397.871 142.718C396.911 144.428 398.301 150.868 396.971 151.318C396.611 151.448 396.161 151.338 395.781 151.358V140.088C397.151 140.018 397.131 139.858 397.371 141.138C398.471 138.888 403.181 139.988 403.181 142.018C403.181 143.298 403.521 151.018 403.181 151.338V151.378V151.368Z" fill="#313130"/>
<path d="M316.21 135.879V137.649H311.99V150.849C311.99 151.319 310.69 151.499 310.22 151.369V137.629H306V135.859H316.21V135.879Z" fill="#313130"/>
<path d="M301.062 140.102C302.002 140.062 302.342 139.882 302.652 140.802C303.052 139.932 305.102 139.562 305.612 140.132C305.722 140.242 305.702 141.792 305.652 141.842C305.512 141.982 302.483 141.552 302.483 143.792V151.362C302.483 151.362 301.073 151.432 301.073 151.362V140.092L301.062 140.102Z" fill="#313130"/>
</svg>
